<?xml version='1.0' encoding='utf-8'?>
<svg xmlns="http://www.w3.org/2000/svg" version="1.1" id="Capa_1" x="0px" y="0px" viewBox="0 0 800 800" style="enable-background:new 0 0 800 800;" xml:space="preserve">
<path d="M66.7,231.7c0-29.4,0-44.1,2.3-56.4C79.2,121.3,121.3,79.2,175.3,69c12.3-2.3,27-2.3,56.4-2.3  c12.9,0,19.3,0,25.5,0.6c26.7,2.5,52,13,72.7,30.1c4.8,4,9.3,8.5,18.5,17.6l18.3,18.3c27.2,27.2,40.8,40.8,57.1,49.8  c8.9,5,18.4,8.9,28.3,11.7c17.9,5.1,37.1,5.1,75.6,5.1h12.5c87.7,0,131.6,0,160.1,25.6c2.6,2.4,5.1,4.9,7.5,7.5  c25.7,28.5,25.7,72.4,25.7,160.1v73.4c0,125.7,0,188.6-39.1,227.6c-39,39.1-101.9,39.1-227.6,39.1H333.3  c-125.7,0-188.6,0-227.6-39.1c-39.1-39-39.1-101.9-39.1-227.6V231.7z" fill="none" stroke="#0D2B45" stroke-width="50" stroke-miterlimit="133.3333" />
<path d="M350,500l100-100 M450,500L350,400" fill="none" stroke="#0D2B45" stroke-width="50" stroke-linecap="round" stroke-miterlimit="133.3333" />
</svg>