<?xml version='1.0' encoding='utf-8'?>
<svg xmlns="http://www.w3.org/2000/svg" version="1.1" id="Capa_1" x="0px" y="0px" viewBox="0 0 800 800" style="enable-background:new 0 0 800 800;" xml:space="preserve">
<path d="M473.6,451.7c69.8,0,126.4-56.4,126.4-125.9c0-69.5-56.6-125.9-126.4-125.9c-69.8,0-126.4,56.4-126.4,125.9  c0,32.2,14.7,55.6,14.7,55.6L209.1,533.7c-6.9,6.8-16.5,24.6,0,41l17.6,17.6c6.9,5.9,24.1,14.1,38.2,0l20.6-20.5  c20.6,20.5,44.1,8.8,52.9-2.9c14.7-20.5-2.9-41-2.9-41l5.9-5.9c28.2,28.1,52.9,11.7,61.7,0c14.7-20.5,0-41,0-41  c-5.9-11.7-17.6-11.7-2.9-26.3l17.6-17.6C431.9,448.8,460.9,451.7,473.6,451.7z" fill="none" stroke="#0D2B45" stroke-width="50" stroke-linejoin="round" stroke-miterlimit="133.3333" />
<path d="M66.7,400c0-157.1,0-235.7,48.8-284.5C164.3,66.7,242.9,66.7,400,66.7c157.1,0,235.7,0,284.5,48.8  c48.8,48.8,48.8,127.4,48.8,284.5c0,157.1,0,235.7-48.8,284.5c-48.8,48.8-127.4,48.8-284.5,48.8c-157.1,0-235.7,0-284.5-48.8  C66.7,635.7,66.7,557.1,66.7,400z" fill="none" stroke="#0D2B45" stroke-width="50" stroke-miterlimit="133.3333" />
</svg>