<?xml version='1.0' encoding='utf-8'?>
<svg xmlns="http://www.w3.org/2000/svg" version="1.1" id="Capa_1" x="0px" y="0px" viewBox="0 0 800 800" style="enable-background:new 0 0 800 800;" xml:space="preserve">
<path d="M66.7,400c0-125.7,0-188.6,39.1-227.6c39.1-39.1,101.9-39.1,227.6-39.1h133.3c125.7,0,188.6,0,227.6,39.1  c39.1,39.1,39.1,101.9,39.1,227.6c0,125.7,0,188.6-39.1,227.6c-39,39.1-101.9,39.1-227.6,39.1H333.3c-125.7,0-188.6,0-227.6-39.1  C66.7,588.6,66.7,525.7,66.7,400z" fill="none" stroke="#0D2B45" stroke-width="50" stroke-miterlimit="133.3333" />
<path d="M200,266.7l72,60c61.2,51,91.8,76.5,128,76.5s66.8-25.5,128-76.5l72-60" fill="none" stroke="#0D2B45" stroke-width="50" stroke-linecap="round" stroke-miterlimit="133.3333" />
</svg>