<?xml version='1.0' encoding='utf-8'?>
<svg xmlns="http://www.w3.org/2000/svg" version="1.1" id="Capa_1" x="0px" y="0px" viewBox="0 0 800 800" style="enable-background:new 0 0 800 800;" xml:space="preserve">
<path d="M699.2,406.2l-24.6-4.3L699.2,406.2z M675.7,542.2l-24.6-4.3L675.7,542.2z M231.3,682.6l-24.9,2.2L231.3,682.6z   M204.2,369.5l24.9-2.2L204.2,369.5z M466.5,174l24.7,4l0,0L466.5,174z M444.4,308.9l24.7,4l0,0L444.4,308.9z M223.3,322.6  L207,303.6l0,0L223.3,322.6z M271.2,281.3l16.3,18.9l0,0L271.2,281.3z M350.6,159.5l-24.2-6.3L350.6,159.5z M366.5,98.3l24.2,6.3  l0,0L366.5,98.3z M422.3,68.8l-7.6,23.8l0,0L422.3,68.8z M427.1,70.4l7.6-23.8l0,0L427.1,70.4z M328.7,215.4l22.1,11.8l0,0  L328.7,215.4z M463.5,108.3l-24.2,6.3l0,0L463.5,108.3z M389.1,71.1l-10.9-22.5l0,0L389.1,71.1z M132.4,715.7l-24.9,2.2L132.4,715.7  z M100,341.1l24.9-2.2c-1.2-13.3-12.6-23.4-26-22.8c-13.4,0.6-23.9,11.6-23.9,25H100z M674.5,401.9l-23.5,136l49.3,8.5l23.5-136  L674.5,401.9z M441.5,708.3h-155v50h155V708.3z M256.2,680.4l-27.1-313.1l-49.8,4.3l27.1,313.1L256.2,680.4z M651,537.9  c-16.9,97.7-105,170.4-209.5,170.4v50c127.5,0,237.5-89,258.8-211.9L651,537.9z M441.8,170l-22.1,134.8l49.3,8.1l22.1-134.8  L441.8,170z M239.6,341.5l48-41.3l-32.6-37.9l-48,41.3L239.6,341.5z M374.8,165.7l15.9-61.1l-48.4-12.6l-15.9,61.1L374.8,165.7z   M414.6,92.6l4.8,1.6l15.3-47.6l-4.8-1.6L414.6,92.6z M350.8,227.2c10.4-19.5,18.5-40.1,24-61.5l-48.4-12.6  c-4.5,17.5-11.2,34.5-19.7,50.5L350.8,227.2z M419.4,94.2c10.2,3.3,17.5,11.2,19.9,20.4l48.4-12.6c-6.8-26.4-27.1-47.1-53-55.4  L419.4,94.2z M390.7,104.6c1.2-4.5,4.4-8.6,9.3-11l-21.7-45c-17.7,8.5-31.1,24.3-36,43.5L390.7,104.6z M400,93.6  c4.5-2.2,9.8-2.5,14.6-1L429.9,45c-17-5.5-35.5-4.2-51.6,3.5L400,93.6z M471.8,366.1h172.7v-50H471.8V366.1z M157.3,713.5L124.9,339  l-49.8,4.3l32.4,374.5L157.3,713.5z M125,717.1v-376H75v376H125z M107.5,717.8c-0.4-5.1,3.6-9.5,8.7-9.5v50  c24.2,0,43.2-20.7,41.1-44.8L107.5,717.8z M491.2,178.1c4.1-25.3,3-51.3-3.5-76.1l-48.4,12.6c4.7,18.1,5.6,37,2.5,55.5L491.2,178.1z   M286.5,708.3c-15.8,0-29-12.1-30.4-27.9l-49.8,4.3c3.6,41.6,38.4,73.6,80.2,73.6V708.3z M287.5,300.2c22.7-19.5,47.1-42.8,63.2-73  l-44.1-23.6c-11.5,21.6-29.9,39.9-51.8,58.7L287.5,300.2z M723.8,410.4c8.5-49.2-29.3-94.3-79.3-94.3v50c18.9,0,33.3,17.1,30,35.8  L723.8,410.4z M116.2,708.3c4.9,0,8.8,3.9,8.8,8.8H75c0,22.8,18.4,41.2,41.2,41.2V708.3z M419.7,304.8  c-5.3,32.1,19.5,61.3,52.1,61.3v-50c-1.7,0-3-1.5-2.7-3.2L419.7,304.8z M229.1,367.3c-0.8-9.8,3.1-19.4,10.5-25.8L207,303.6  c-19.6,16.9-29.9,42.2-27.7,68L229.1,367.3z" fill="#0D2B45" />
</svg>