<?xml version='1.0' encoding='utf-8'?>
<svg xmlns="http://www.w3.org/2000/svg" version="1.1" id="Capa_1" x="0px" y="0px" viewBox="0 0 800 800" style="enable-background:new 0 0 800 800;" xml:space="preserve">
<path d="M666.7,733.3v-200c0-93.3,0-140-18.2-175.7c-16-31.4-41.5-56.9-72.8-72.8c-35.7-18.2-82.3-18.2-175.7-18.2  c-93.3,0-140,0-175.7,18.2c-31.4,16-56.9,41.5-72.8,72.8c-18.2,35.7-18.2,82.3-18.2,175.7v200" fill="none" stroke="#0D2B45" stroke-width="50" stroke-miterlimit="133.3333" />
<path d="M500,360.5c41,0,74.3,31.8,72.8,72.8" fill="none" stroke="#0D2B45" stroke-width="50" stroke-linecap="round" stroke-miterlimit="133.3333" />
<path d="M66.7,733.3h666.7" fill="none" stroke="#0D2B45" stroke-width="50" stroke-linecap="round" stroke-miterlimit="133.3333" />
<path d="M400,66.7v100" fill="none" stroke="#0D2B45" stroke-width="50" stroke-linecap="round" stroke-miterlimit="133.3333" />
<path d="M700,166.7l-50,50" fill="none" stroke="#0D2B45" stroke-width="50" stroke-linecap="round" stroke-miterlimit="133.3333" />
<path d="M100,166.7l50,50" fill="none" stroke="#0D2B45" stroke-width="50" stroke-linecap="round" stroke-miterlimit="133.3333" />
<path d="M450,583.3c0,27.6-22.4,50-50,50c-27.6,0-50-22.4-50-50s22.4-50,50-50C427.6,533.3,450,555.7,450,583.3z" fill="none" stroke="#0D2B45" stroke-width="50" stroke-miterlimit="133.3333" />
<path d="M400,633.3v100" fill="none" stroke="#0D2B45" stroke-width="50" stroke-linecap="round" stroke-miterlimit="133.3333" />
</svg>