<?xml version='1.0' encoding='utf-8'?>
<svg xmlns="http://www.w3.org/2000/svg" version="1.1" id="Capa_1" x="0px" y="0px" viewBox="0 0 800 800" style="enable-background:new 0 0 800 800;" xml:space="preserve">
<path d="M305.1,180.3c42.2-75.7,63.3-113.6,94.9-113.6s52.7,37.9,94.9,113.6l10.9,19.6c12,21.5,18,32.3,27.4,39.4  c9.4,7.1,21,9.7,44.3,15l21.2,4.8c82,18.6,123,27.8,132.7,59.2c9.8,31.4-18.2,64-74.1,129.4l-14.5,16.9  c-15.9,18.6-23.8,27.9-27.4,39.4c-3.6,11.5-2.4,23.9,0,48.7l2.2,22.6c8.5,87.2,12.7,130.8-12.9,150.2  c-25.5,19.4-63.9,1.7-140.7-33.6l-19.9-9.1c-21.8-10-32.7-15.1-44.3-15.1c-11.6,0-22.5,5-44.3,15.1l-19.9,9.1  c-76.8,35.3-115.2,53-140.7,33.6c-25.5-19.4-21.3-63-12.9-150.2l2.2-22.6c2.4-24.8,3.6-37.2,0-48.7c-3.6-11.5-11.5-20.8-27.4-39.4  l-14.5-16.9c-55.9-65.4-83.8-98-74.1-129.4c9.8-31.4,50.7-40.6,132.7-59.2l21.2-4.8c23.3-5.3,34.9-7.9,44.3-15  c9.4-7.1,15.4-17.9,27.4-39.4L305.1,180.3z" fill="none" stroke="#0D2B45" stroke-width="50" stroke-miterlimit="133.3333" />
</svg>