<?xml version='1.0' encoding='utf-8'?>
<svg xmlns="http://www.w3.org/2000/svg" version="1.1" id="Capa_1" x="0px" y="0px" viewBox="0 0 800 800" style="enable-background:new 0 0 800 800;" xml:space="preserve">
<path d="M200,266.7h133.3" fill="none" stroke="#0D2B45" stroke-width="50" stroke-linecap="round" stroke-linejoin="round" stroke-miterlimit="133.3333" />
<path d="M694.4,300h-86.7C548.2,300,500,344.8,500,400s48.2,100,107.7,100h86.7c2.8,0,4.2,0,5.3-0.1  c18-1.1,32.3-14.4,33.5-31.1c0.1-1.1,0.1-2.4,0.1-5V336.1c0-2.6,0-3.9-0.1-5c-1.2-16.7-15.5-30-33.5-31.1  C698.6,300,697.2,300,694.4,300z" fill="none" stroke="#0D2B45" stroke-width="50" stroke-miterlimit="133.3333" />
<path d="M698.8,300c-2.6-62.4-10.9-100.7-37.9-127.6c-39-39.1-101.9-39.1-227.6-39.1h-100c-125.7,0-188.6,0-227.6,39.1  C66.7,211.4,66.7,274.3,66.7,400c0,125.7,0,188.6,39.1,227.6c39.1,39.1,101.9,39.1,227.6,39.1h100c125.7,0,188.6,0,227.6-39.1  c26.9-26.9,35.3-65.2,37.9-127.6" fill="none" stroke="#0D2B45" stroke-width="50" stroke-miterlimit="133.3333" />
<path d="M599.7,400h0.3" fill="none" stroke="#0D2B45" stroke-width="66.6667" stroke-linecap="round" stroke-linejoin="round" stroke-miterlimit="133.3333" />
</svg>