<?xml version='1.0' encoding='utf-8'?>
<svg xmlns="http://www.w3.org/2000/svg" version="1.1" id="Capa_1" x="0px" y="0px" viewBox="0 0 800 800" style="enable-background:new 0 0 800 800;" xml:space="preserve">
<g id="layer1">
	<path d="M621.5,1.2l-17.3,3.4l-16.8,5.6l-15.9,7.5l-14.8,9.7l-13.4,11.3l-12,13L521.1,66l-8.4,15.5L506.4,98l-4.2,17.2   l-2,17.6l0.2,17.5l2.3,17.5l-0.3-1.9l1.3,13.8l-1,13.8l-3.4,13.4l-5.6,12.7l-7.8,11.5l-9.6,10L400,307.4L173.8,503.8l-8.5,6.6   l-9.5,5.3l-9.9,4l-10.5,2.6l2.3-0.3l-17.7,4l-17,6.2l-15.9,8.4l-14.9,10.3L59,563l-11.6,13.8L37.6,592l-7.7,16.4l-5.5,17.2   L21,643.3l-1,18l1.3,18L25,697l5.9,17.1l8,16.2l10.1,15L60.9,759l13.7,12l4.5,1.9l4.8-0.3l4.1-2.7l2.3-4.3l25.9-96.6l3.7-8.9   l5.6-7.9l7.3-6.2l8.7-4.3l9.4-2.1l9.7,0.1l9.3,2.6l8.4,4.6l7.1,6.6l5.3,8l3.2,9.1l1,9.6l-1.5,9.5l-25.8,96.6l-0.2,4.8l2.2,4.4   l4.1,2.7l4.8,0.5l17.3-3.4l16.8-5.5l15.9-7.6l14.7-9.6l13.6-11.4l12-12.8l10.2-14.5l8.4-15.5l6.3-16.4l4.2-17.1l2.1-17.5l-0.2-17.7   l-2.4-17.4l0.4,1.8l-1.4-13.8l1.1-13.8l3.4-13.4l5.7-12.7l7.8-11.4l9.6-10l76.2-66.2l226.2-196.6l8.5-6.6l9.5-5.2l9.9-4l10.5-2.7   l-2.3,0.5l17.7-4l17-6.3l15.9-8.4l14.8-10.4L741,237l11.6-13.8l9.8-15.2l7.7-16.2l5.5-17.2l3.4-17.9l1-18l-1.4-18L775,103   l-5.9-17.1l-8-16.2l-10.1-15l-12-13.6l-13.5-12l-4.5-2l-4.8,0.4l-4.1,2.7l-2.3,4.2l-26,96.6l-3.6,9l-5.6,7.8l-7.3,6.3l-8.7,4.3   l-9.4,2.1l-9.7-0.2l-9.3-2.4l-8.4-4.7l-7.1-6.6l-5.3-8l-3.2-9.1l-1-9.5l1.3-9.6l25.9-96.6l0.2-4.8l-2.3-4.4l-4-2.7L621.5,1.2z    M578.2,61.4L567.9,100l-2.4,13.8v14l2.4,13.8l4.8,13l7,12.1l9,10.6l10.6,9l12.1,7l13,4.8l13.8,2.5h14l13.8-2.5l13.1-4.8l12-7   l10.7-9l8.9-10.6l7-12.1l4.8-13l10.3-38.8l4.5,14.1l2.3,14.6l0.1,14.8l-2,14.6l-4.1,14.2l-6.2,13.5l-8.1,12.3l-9.8,11.1l-11.4,9.5   l-12.6,7.7l-13.6,5.8l-14.5,3.6l-15.6,3.9l-15.1,6l-14.1,8l-12.9,9.8L399.9,439.8l-102.4,89.1l-11.1,10.9l-9.5,12.4l-8,13.4   l-6,14.5l-4.2,14.9l-2.1,15.5l-0.2,15.5l1.9,15.5L260,657l-0.8,15.5l-3.1,15.2l-5.4,14.6l-7.8,13.5l-9.6,12.2l-11.4,10.5l10.3-38.7   l2.4-13.7v-13.9l-2.4-13.8l-4.8-13.1l-7-12l-9-10.8l-10.6-8.9l-12.1-7l-13-4.8l-13.8-2.4h-14l-13.8,2.4l-13.1,4.8l-12,7l-10.7,8.9   l-8.9,10.8l-7,12l-4.8,13.1L67.3,697l-4.5-14.1l-2.3-14.5l-0.2-14.8l2.1-14.6l4.1-14.2l6.2-13.4l8.1-12.4l9.8-11l11.3-9.5l12.7-7.7   l13.6-5.8l14.5-3.6l15.6-3.9l15.1-6l14.1-7.8l12.9-9.8l199.8-173.7l102.6-89.1l11.1-10.9l9.5-12.3l7.9-13.5l6.1-14.3l4.2-15.1   l2.1-15.4l0.2-15.6l-1.9-15.5l-1.7-15.4l0.7-15.5l3.2-15.3l5.4-14.5l7.8-13.5l9.6-12.2L578.2,61.4z" fill="#0D2B45" />
</g>
</svg>