<?xml version='1.0' encoding='utf-8'?>
<svg xmlns="http://www.w3.org/2000/svg" version="1.1" id="Capa_1" x="0px" y="0px" viewBox="0 0 800 800" style="enable-background:new 0 0 800 800;" xml:space="preserve">
<path d="M733.3,733.3H400c-157.1,0-235.7,0-284.5-48.8C66.7,635.7,66.7,557.1,66.7,400V66.7" fill="none" stroke="#0B6E4F" stroke-width="50" stroke-linecap="round" stroke-miterlimit="133.3333" />
<path d="M633.3,233.3L529.4,364.2c-15.9,20-23.9,30.1-33,35c-14.1,7.5-30.8,7.9-45.2,1c-9.3-4.5-17.7-14.1-34.5-33.5  c-16.8-19.3-25.2-29-34.5-33.5c-14.4-6.9-31.2-6.5-45.2,1c-9.1,4.9-17.1,14.9-33,35L200,500" fill="none" stroke="#0B6E4F" stroke-width="50" stroke-linecap="round" stroke-miterlimit="133.3333" />
</svg>