<?xml version='1.0' encoding='utf-8'?>
<svg xmlns="http://www.w3.org/2000/svg" version="1.1" id="Capa_1" x="0px" y="0px" viewBox="0 0 800 800" style="enable-background:new 0 0 800 800;" xml:space="preserve">
<g id="layer1">
	<path d="M465.5,35.7c-77.7-3.4-138.4,48.9-138.4,48.9c-8.5,7.1-9.6,19.7-2.5,28.2c4.9,5.9,12.8,8.4,20.2,6.6   c0,0,68.9-17.4,121,34.8c2.9,2.9,9.1,19.2,9.1,35.9s-6.2,32.9-9.1,35.9L349.4,342.3h-0.1c-3-1.6-6.3-2.4-9.6-2.3   c-5.2,0.1-10.2,2.2-13.8,5.9l-320,320c-7.8,7.8-7.8,20.5,0,28.3l80,80c7.8,7.8,20.5,7.8,28.3,0l320-320c6.2-6.2,7.6-15.8,3.5-23.5   L590,278.3l21.7,21.7l-5.9,5.9c-7.8,7.8-7.8,20.5,0,28.3l60,60c7.8,7.8,20.5,7.8,28.3,0l100-100c7.8-7.8,7.8-20.5,0-28.3l-60-60   c-7.8-7.8-20.5-7.8-28.3,0l-5.9,5.9l-22.3-22.3v-0.1c4.1-7.7,2.7-17.2-3.5-23.4l-60-60c-6.2-6.2-15.8-7.6-23.5-3.5l-16.5-16.5   C539.7,51.4,500.8,37.2,465.5,35.7z M463.8,75.7c26.5,1.2,54,10.4,82,38.4l30,30c6.2,6.2,15.8,7.6,23.5,3.5l33,33c0,0,0,0.1,0,0.1   c-4.1,7.7-2.7,17.2,3.5,23.4l50,50c7.8,7.8,20.5,7.8,28.3,0l5.9-5.9l31.7,31.7L680,351.7L648.3,320l5.9-5.9   c7.8-7.8,7.8-20.5,0-28.3l-50-50c-7.8-7.8-20.5-7.8-28.3,0L410,401.7L378.3,370l115.9-115.9c17.1-17.1,20.9-40.8,20.9-64.1   s-3.8-47.1-20.9-64.1c-23-23-47.8-33.5-71.6-40.1C436.4,81.7,448.3,75,463.8,75.7z M340,388.3l51.7,51.7L100,731.7L48.3,680   L340,388.3z" fill="#0B6E4F" />
</g>
</svg>