<?xml version='1.0' encoding='utf-8'?>
<svg xmlns="http://www.w3.org/2000/svg" version="1.1" id="Capa_1" x="0px" y="0px" viewBox="0 0 800 800" style="enable-background:new 0 0 800 800;" xml:space="preserve">
<path d="M566.7,200c0-62.9,0-94.3-19.5-113.8c-19.5-19.5-51-19.5-113.8-19.5h-66.7c-62.9,0-94.3,0-113.8,19.5  c-19.5,19.5-19.5,51-19.5,113.8" fill="none" stroke="#0B6E4F" stroke-width="50" stroke-miterlimit="133.3333" />
<path d="M371.5,367.4c12.7-22.7,19-34.1,28.5-34.1c9.5,0,15.8,11.4,28.5,34.1l3.3,5.9c3.6,6.5,5.4,9.7,8.2,11.8  c2.8,2.1,6.3,2.9,13.3,4.5l6.4,1.4c24.6,5.6,36.9,8.3,39.8,17.8c2.9,9.4-5.5,19.2-22.2,38.8l-4.3,5.1c-4.8,5.6-7.1,8.4-8.2,11.8  c-1.1,3.4-0.7,7.2,0,14.6l0.7,6.8c2.5,26.2,3.8,39.2-3.9,45.1c-7.7,5.8-19.2,0.5-42.2-10.1l-6-2.7c-6.5-3-9.8-4.5-13.3-4.5  c-3.5,0-6.7,1.5-13.3,4.5l-6,2.7c-23,10.6-34.5,15.9-42.2,10.1c-7.7-5.8-6.4-18.9-3.9-45.1l0.7-6.8c0.7-7.4,1.1-11.2,0-14.6  c-1.1-3.4-3.5-6.2-8.2-11.8l-4.3-5.1c-16.8-19.6-25.2-29.4-22.2-38.8c2.9-9.4,15.2-12.2,39.8-17.8l6.4-1.4c7-1.6,10.5-2.4,13.3-4.5  c2.8-2.1,4.6-5.4,8.2-11.8L371.5,367.4z" fill="none" stroke="#0B6E4F" stroke-width="50" stroke-miterlimit="133.3333" />
<path d="M466.7,200H333.3c-94.3,0-141.4,0-170.7,29.3s-29.3,76.4-29.3,170.7v35.2c0,80.2,0,120.3,19.9,152.5  c19.9,32.2,55.8,50.1,127.5,86c58.5,29.3,87.8,43.9,119.3,43.9s60.7-14.6,119.3-43.9c71.7-35.9,107.6-53.8,127.5-86  c19.9-32.2,19.9-72.3,19.9-152.5V400c0-94.3,0-141.4-29.3-170.7C608.1,200,560.9,200,466.7,200z" fill="none" stroke="#0B6E4F" stroke-width="50" stroke-miterlimit="133.3333" />
</svg>