<?xml version='1.0' encoding='utf-8'?>
<svg xmlns="http://www.w3.org/2000/svg" version="1.1" id="Capa_1" x="0px" y="0px" viewBox="0 0 800 800" style="enable-background:new 0 0 800 800;" xml:space="preserve">
<path d="M621.2,522.3l57.2-171.6c50-149.9,75-224.9,35.4-264.5c-39.6-39.6-114.5-14.6-264.5,35.4l-171.6,57.2  c-121,40.3-181.5,60.5-198.7,90.1c-16.4,28.1-16.4,62.9,0,91c17.2,29.6,77.7,49.8,198.7,90.1c19.4,6.5,29.1,9.7,37.3,15.2  c7.9,5.3,14.6,12,19.9,19.9c5.4,8.1,8.7,17.8,15.2,37.3c40.3,121,60.5,181.5,90.1,198.7c28.1,16.4,62.9,16.4,91,0  C560.7,703.9,580.9,643.4,621.2,522.3z" fill="none" stroke="#0B6E4F" stroke-width="50" stroke-miterlimit="133.3333" />
<path d="M593,207L452.6,345.8" fill="none" stroke="#0B6E4F" stroke-width="50" stroke-linecap="round" stroke-miterlimit="133.3333" />
</svg>