<?xml version='1.0' encoding='utf-8'?>
<svg xmlns="http://www.w3.org/2000/svg" version="1.1" id="Capa_1" x="0px" y="0px" viewBox="0 0 800 800" style="enable-background:new 0 0 800 800;" xml:space="preserve">
<g id="layer1">
	<path d="M640.8,15.2l-9.6,0.5l-9.5,2.1l-9,3.6l-8.4,5l-7.4,6.3L17,612.7l-6.1,7.1l-4.9,8l-3.6,8.7l-2.3,9.1l-0.7,9.5   l0.8,9.4l2.2,9.1l3.6,8.8l4.9,8l6.1,7.3L98.4,779l4.5,3.3l5.2,2l5.5,0.5l5.5-1.1l4.9-2.5l4.1-3.9l2.9-4.8l1.4-5.3l0.7-6.1l1.2-5.1   l2.6-4.5l3.7-3.8l4.5-2.7l4.9-1.4l5.2-0.1l19.8,2.4l5.2-0.1l5.1-1.5l4.5-2.7l3.7-3.8l2.5-4.5l1.2-5.1l2.4-19.8l1.2-5.1l2.5-4.6   l3.7-3.8l4.5-2.7l5-1.4h5.3l19.8,2.3l5.2-0.1l5-1.4l4.5-2.7l3.7-3.8l2.5-4.6l1.3-5l2.3-19.8l1.2-5.1l2.6-4.5l3.7-3.8l4.4-2.7   l5.1-1.3l5.2-0.1l19.8,2.3l5.2-0.1l5-1.3l4.5-2.7l3.7-3.8l2.6-4.5l1.2-5.1l2.3-19.8l1.2-5.2l2.6-4.5l3.7-3.8l4.5-2.7l5.1-1.5   l5.2-0.1l19.8,2.3h5.3l4.9-1.4l4.5-2.7l3.6-3.8l2.6-4.6l1.3-5.1l2.3-19.8l1.3-5.1l2.4-4.5l3.7-3.8l4.5-2.7l5-1.5h5.2l19.8,2.3h5.2   l5-1.5l4.5-2.7l3.6-3.8l2.5-4.5l1.4-5.1l2.3-19.8l1.2-5.1l2.6-4.6l3.7-3.7l4.5-2.7l5.1-1.3l5.2-0.1l19.9,2.3h5.2l5-1.5l4.5-2.7   l3.6-3.8l2.6-4.5l1.3-5.1l2.3-19.8l1.2-5.1l2.6-4.5l3.6-3.8l4.5-2.7l5-1.4l5.2-0.2l19.9,2.3h5.2l5-1.4l4.5-2.7l3.6-3.8l2.6-4.6   l1.2-5.1l4.4-36.9l10.5,3.4l10.7,2.7l11,1.2l11.1-0.2l10.9-1.8l10.5-3.4l10.1-4.7l9.2-6l8.4-7.3L783,271l6.2-7.3l4.9-8.3l3.7-8.9   l2.1-9.4l0.6-9.6l-1-9.7l-2.4-9.2l-4-8.8l-5.2-8.1l-6.5-7l-7.6-5.9l-39.3-26.3l-8.4-6.3l-7.4-7.6l-6.5-8.4l-5.2-9.1l-3.9-9.8   l-2.7-10.2L699,90.4l0.2-10.6l-0.1-9.7l-1.6-9.5l-3.1-9.2l-4.5-8.6l-5.9-7.7l-7.1-6.7l-8-5.4l-8.8-4.1l-9.3-2.6L640.8,15.2z    M639.8,55.2l5.3,0.9l5,2.2l4.1,3.5l3,4.5l1.8,5l0.2,5.4l-0.2,14.1l1.4,14.1l3,13.8l4.7,13.4l6.2,12.6l7.5,11.9l9.1,10.9l10.2,9.8   l11.2,8.5l39.4,26.2l3.8,3.4l2.9,4.1l1.7,4.8l0.5,5.1l-0.8,5l-2,4.6l-3.1,3.9l-89.1,89.2l-5.7,4.7l-6.4,3.6l-7,2.3l-7.3,1l-7.3-0.3   l-7.2-1.6L461.1,287l-5.8-2.4l-5.2-3.2l-4.7-4.1l-18.3-18.2l198-198l4.3-3.3l5-2L639.8,55.2z M595.5,163.9l-7.8,0.8l-7.5,2.3   l-7,3.7l-6,5l-32.7,32.7l-5.1,6.3l-3.8,7.2l-2.2,7.9l-0.6,8l1,8l2.7,7.7l4.2,7l5.5,6l6.6,4.7l7.3,3.4l63.7,21.2l7.2,1.7l7.3,0.3   l7.3-1l7-2.4l6.5-3.6l5.6-4.6l20-20l4.9-6.1l3.8-6.9l2.2-7.6l0.9-7.7l-0.9-7.8l-2.2-7.6l-3.8-6.9l-5-6.1l-6.1-5l-50.9-33.8   l-6.9-3.8l-7.6-2.3L595.5,163.9z M595.5,203.9l50.9,34l-20,19.9l-63.6-21.2L595.5,203.9z M398.9,287.4l18.3,18.3l6.9,6.1l7.6,5.3   l8.1,4.5l8.6,3.4l114.2,38l-2.9,25.3l-9.5-0.3l-9.3,1.1l-9.1,2.6l-8.5,3.9l-7.8,5.2l-7,6.4l-5.8,7.3l-4.6,8.3l-3.3,8.8L493,441   l-9.4-0.4l-9.4,1.1l-9.1,2.6l-8.6,3.9l-7.8,5.2l-6.9,6.5l-5.9,7.3l-4.5,8.3l-3.3,8.8l-1.9,9.2l-9.4-0.4l-9.4,1.2l-9.1,2.5l-8.5,4   l-7.8,5.2l-6.9,6.3l-5.9,7.5l-4.6,8.1l-3.2,8.9l-1.9,9.2l-9.4-0.4l-9.4,1.2l-9.1,2.5l-8.5,4l-7.8,5.2l-7,6.4l-5.9,7.4l-4.6,8.2   l-3.2,8.8l-1.8,9.2l-9.5-0.3l-9.3,1.1l-9.1,2.6l-8.6,3.9l-7.8,5.2l-6.9,6.4l-5.9,7.4l-4.6,8.2l-3.2,8.8l-1.9,9.2l-9.5-0.4l-9.3,1.1   l-9.1,2.7l-8.4,3.9l-7.8,5.2l-7,6.4l-5.8,7.4l-4.6,8.2l-3.3,8.8l-1.9,9.2l-9.1-0.3l-9,1l-8.9,2.3l-8.3,3.6l-7.7,4.9l-6.9,5.9   l-5.9,7l-59.1-59l-3.2-4.2l-2-4.8l-0.6-5.2l0.7-5.2l2-4.8l3.1-4.1L398.9,287.4z" fill="#0B6E4F" />
</g>
</svg>