<?xml version='1.0' encoding='utf-8'?>
<svg xmlns="http://www.w3.org/2000/svg" version="1.1" id="Capa_1" x="0px" y="0px" viewBox="0 0 800 800" style="enable-background:new 0 0 800 800;" xml:space="preserve">
<path d="M157.6,537.9c-51.5-51.5-77.3-77.3-86.9-110.7c-9.6-33.4-1.4-68.9,15-139.9l9.4-40.9  c13.8-59.7,20.7-89.6,41.1-110c20.4-20.4,50.3-27.3,110-41.1l40.9-9.4c71-16.4,106.5-24.6,139.9-15c33.4,9.6,59.2,35.3,110.7,86.9  l61,61c89.6,89.6,134.5,134.4,134.5,190.1s-44.8,100.5-134.5,190.1S464.4,733.3,408.7,733.3s-100.5-44.8-190.1-134.5L157.6,537.9z" fill="none" stroke="#0B6E4F" stroke-width="50" stroke-miterlimit="133.3333" />
<circle cx="286.9" cy="296" r="66.7" fill="none" stroke="#0B6E4F" stroke-width="50" stroke-miterlimit="133.3333" />
<path d="M384.7,616.7L617.4,384" fill="none" stroke="#0B6E4F" stroke-width="50" stroke-linecap="round" stroke-miterlimit="133.3333" />
</svg>