<?xml version='1.0' encoding='utf-8'?>
<svg xmlns="http://www.w3.org/2000/svg" version="1.1" id="Capa_1" x="0px" y="0px" viewBox="0 0 800 800" style="enable-background:new 0 0 800 800;" xml:space="preserve">
<path d="M606,268l15.4-15.4c25.6-25.6,67.1-25.6,92.7,0c25.6,25.6,25.6,67.1,0,92.7l-15.4,15.4 M606,268  c0,0,1.9,32.8,30.9,61.8s61.8,30.9,61.8,30.9 M606,268L464,410c-9.6,9.6-14.4,14.4-18.6,19.7c-4.9,6.3-9.1,13-12.5,20.2  c-2.9,6.1-5,12.5-9.3,25.4l-13.8,41.3l-4.5,13.4 M698.7,360.7l-142,142c-9.6,9.6-14.4,14.4-19.7,18.6c-6.3,4.9-13,9.1-20.2,12.5  c-6.1,2.9-12.5,5-25.4,9.3L450,556.8l-13.4,4.5 M436.6,561.3l-13.4,4.5c-6.4,2.1-13.4,0.5-18.1-4.3s-6.4-11.7-4.3-18.1l4.5-13.4   M436.6,561.3L405.4,530" fill="none" stroke="#F28C28" stroke-width="50" stroke-miterlimit="133.3333" />
<path d="M266.7,433.3H350" fill="none" stroke="#F28C28" stroke-width="50" stroke-linecap="round" stroke-miterlimit="133.3333" />
<path d="M266.7,300h216.7" fill="none" stroke="#F28C28" stroke-width="50" stroke-linecap="round" stroke-miterlimit="133.3333" />
<path d="M266.7,566.7h50" fill="none" stroke="#F28C28" stroke-width="50" stroke-linecap="round" stroke-miterlimit="133.3333" />
<path d="M660.9,105.7c-39-39.1-101.9-39.1-227.6-39.1h-66.7c-125.7,0-188.6,0-227.6,39.1s-39,101.9-39,227.6v133.3  c0,125.7,0,188.6,39.1,227.6c39.1,39.1,101.9,39.1,227.6,39.1h66.7c125.7,0,188.6,0,227.6-39.1c31.4-31.4,37.6-78.3,38.8-160.9" fill="none" stroke="#F28C28" stroke-width="50" stroke-linecap="round" stroke-miterlimit="133.3333" />
</svg>