<?xml version='1.0' encoding='utf-8'?>
<svg xmlns="http://www.w3.org/2000/svg" version="1.1" id="Capa_1" x="0px" y="0px" viewBox="0 0 800 800" style="enable-background:new 0 0 800 800;" xml:space="preserve">
<path d="M371.5,367.4c12.7-22.7,19-34.1,28.5-34.1s15.8,11.4,28.5,34.1l3.3,5.9c3.6,6.5,5.4,9.7,8.2,11.8  c2.8,2.1,6.3,2.9,13.3,4.5l6.4,1.4c24.6,5.6,36.9,8.3,39.8,17.8c2.9,9.4-5.5,19.2-22.2,38.8l-4.3,5.1c-4.8,5.6-7.1,8.4-8.2,11.8  s-0.7,7.2,0,14.6l0.7,6.8c2.5,26.2,3.8,39.2-3.9,45.1c-7.7,5.8-19.2,0.5-42.2-10.1l-6-2.7c-6.5-3-9.8-4.5-13.3-4.5  s-6.7,1.5-13.3,4.5l-6,2.7c-23,10.6-34.5,15.9-42.2,10.1c-7.7-5.8-6.4-18.9-3.9-45.1l0.7-6.8c0.7-7.4,1.1-11.2,0-14.6  s-3.5-6.2-8.2-11.8l-4.3-5.1c-16.8-19.6-25.2-29.4-22.2-38.8c2.9-9.4,15.2-12.2,39.8-17.8l6.4-1.4c7-1.6,10.5-2.4,13.3-4.5  s4.6-5.4,8.2-11.8L371.5,367.4z" fill="none" stroke="#F28C28" stroke-width="50" stroke-miterlimit="133.3333" />
<path d="M66.7,231.7c0-29.4,0-44.1,2.3-56.4c10.2-54,52.3-96.1,106.3-106.3c12.3-2.3,27-2.3,56.4-2.3  c12.9,0,19.3,0,25.5,0.6c26.7,2.5,52,13,72.7,30.1c4.8,4,9.3,8.5,18.5,17.6l18.3,18.3c27.2,27.2,40.8,40.8,57.1,49.8  c8.9,5,18.4,8.9,28.3,11.7c17.9,5.1,37.1,5.1,75.6,5.1h12.5c87.7,0,131.6,0,160.1,25.6c2.6,2.4,5.1,4.9,7.5,7.5  c25.7,28.5,25.7,72.4,25.7,160.1v73.4c0,125.7,0,188.6-39.1,227.6c-39,39.1-101.9,39.1-227.6,39.1H333.3  c-125.7,0-188.6,0-227.6-39.1c-39.1-39-39.1-101.9-39.1-227.6V231.7H66.7z" fill="none" stroke="#F28C28" stroke-width="50" stroke-miterlimit="133.3333" />
</svg>