<?xml version='1.0' encoding='utf-8'?>
<svg xmlns="http://www.w3.org/2000/svg" version="1.1" id="Capa_1" x="0px" y="0px" viewBox="0 0 800 800" style="enable-background:new 0 0 800 800;" xml:space="preserve">
<path d="M522.7,486.2c116.3,0,210.6-93.9,210.6-209.8S639,66.6,522.7,66.6C406.4,66.7,312,160.6,312,276.4  c0,53.7,24.5,92.7,24.5,92.7L81.8,622.8c-11.4,11.4-27.4,41,0,68.3l29.4,29.3c11.4,9.8,40.2,23.4,63.7,0l34.3-34.2  c34.3,34.2,73.5,14.6,88.2-4.9c24.5-34.1-4.9-68.3-4.9-68.3l9.8-9.8c47,46.8,88.2,19.5,102.9,0c24.5-34.1,0-68.3,0-68.3  c-9.8-19.5-29.4-19.5-4.9-43.9l29.4-29.3C453.1,481.3,501.5,486.2,522.7,486.2z" fill="none" stroke="#F28C28" stroke-width="50" stroke-linejoin="round" stroke-miterlimit="133.3333" />
<path d="M596.2,276.5c0,40.4-32.9,73.2-73.5,73.2s-73.5-32.8-73.5-73.2s32.9-73.2,73.5-73.2S596.2,236,596.2,276.5z" fill="none" stroke="#F28C28" stroke-width="50" stroke-miterlimit="133.3333" />
</svg>