<?xml version='1.0' encoding='utf-8'?>
<svg xmlns="http://www.w3.org/2000/svg" version="1.1" id="Capa_1" x="0px" y="0px" viewBox="0 0 800 800" style="enable-background:new 0 0 800 800;" xml:space="preserve">
<path d="M166.7,283.8c0-119.9,104.5-217.2,233.3-217.2c128.9,0,233.3,97.2,233.3,217.2c0,119-74.5,257.8-190.7,307.5  c-27.1,11.6-58.3,11.6-85.3,0C241.1,541.7,166.7,402.8,166.7,283.8z" fill="none" stroke="#F28C28" stroke-width="50" stroke-miterlimit="133.3333" />
<path d="M466.7,300c0,36.8-29.8,66.7-66.7,66.7s-66.7-29.8-66.7-66.7c0-36.8,29.8-66.7,66.7-66.7S466.7,263.2,466.7,300  z" fill="none" stroke="#F28C28" stroke-width="50" stroke-miterlimit="133.3333" />
<path d="M698.7,516.7c22.2,20.1,34.6,42.7,34.6,66.7c0,82.8-149.2,150-333.3,150s-333.3-67.2-333.3-150  c0-23.9,12.5-46.6,34.6-66.7" fill="none" stroke="#F28C28" stroke-width="50" stroke-linecap="round" stroke-miterlimit="133.3333" />
</svg>