<?xml version='1.0' encoding='utf-8'?>
<svg xmlns="http://www.w3.org/2000/svg" version="1.1" id="Capa_1" x="0px" y="0px" viewBox="0 0 800 800" style="enable-background:new 0 0 800 800;" xml:space="preserve">
<path d="M225,226.6l-12.5,21.7L225,226.6z M206.7,208.3L185,220.8L206.7,208.3z M593.3,208.3l21.7,12.5L593.3,208.3z   M575,226.6l12.5,21.7L575,226.6z M575,73.4l12.5-21.7L575,73.4z M593.3,91.7L615,79.2L593.3,91.7z M225,73.4l-12.5-21.7L225,73.4z   M206.7,91.7L185,79.2L206.7,91.7z M456.9,723.6l-17.7-17.7L456.9,723.6z M456.9,476.4l-17.7,17.7L456.9,476.4z M343.1,476.4  l-17.7-17.7L343.1,476.4z M343.1,723.6l17.7-17.7L343.1,723.6z M513.6,366.3l-3.7-24.7L513.6,366.3z M649.4,345.9l-3.7-24.7l0,0  L649.4,345.9z M728.7,192.2L752,183l0,0L728.7,192.2z M691.1,154.6l-9.2,23.3L691.1,154.6z M697.9,334.8l-11.7-22.1l0,0L697.9,334.8  z M729.5,298.1l23.6,8.3l0,0L729.5,298.1z M416.1,397.2l-18.9-16.3l0,0L416.1,397.2z M400.2,466.7v25h24.6l0.4-24.6L400.2,466.7z   M183.3,125c-13.8,0-25,11.2-25,25s11.2,25,25,25V125z M283.3,91.7h233.3v-50H283.3V91.7z M516.7,208.3H283.3v50h233.3v-50H516.7z   M283.3,208.3c-16,0-26.4,0-34.2-0.7c-7.5-0.7-10.2-1.8-11.6-2.6l-25,43.3c10.2,5.9,21.1,8.1,32.1,9.1c10.6,1,23.6,0.9,38.8,0.9  L283.3,208.3L283.3,208.3z M175,150c0,15.1,0,28.1,0.9,38.8c1,11,3.2,21.8,9.1,32.1l43.3-25c-0.8-1.4-1.9-4.1-2.6-11.6  C225,176.4,225,166,225,150H175z M237.5,205c-3.8-2.2-7-5.4-9.2-9.2l-43.3,25c6.6,11.4,16.1,20.9,27.5,27.5L237.5,205z M575,150  c0,16,0,26.4-0.7,34.2c-0.7,7.5-1.8,10.2-2.6,11.6l43.3,25c5.9-10.2,8.1-21.1,9.1-32.1c1-10.6,0.9-23.6,0.9-38.8L575,150L575,150z   M516.7,258.3c15.1,0,28.1,0,38.8-0.9c11-1,21.8-3.2,32.1-9.1l-25-43.3c-1.4,0.8-4.1,1.9-11.6,2.6c-7.9,0.7-18.2,0.7-34.2,0.7  L516.7,258.3L516.7,258.3z M571.6,195.8c-2.2,3.8-5.3,7-9.1,9.2l25,43.3c11.4-6.6,20.9-16.1,27.5-27.5L571.6,195.8z M516.7,91.7  c16,0,26.4,0,34.2,0.7c7.5,0.7,10.2,1.8,11.6,2.6l25-43.3c-10.2-5.9-21.1-8.1-32.1-9.1c-10.6-1-23.6-0.9-38.8-0.9L516.7,91.7  L516.7,91.7z M625,150c0-15.1,0-28.1-0.9-38.8c-1-11-3.2-21.8-9.1-32.1l-43.3,25c0.8,1.4,1.9,4.1,2.6,11.6  c0.7,7.8,0.7,18.2,0.7,34.2h50V150z M562.5,95c3.8,2.2,7,5.4,9.1,9.2l43.3-25c-6.6-11.4-16.1-20.9-27.5-27.5L562.5,95z M283.3,41.7  c-15.1,0-28.1,0-38.8,0.9c-11,1-21.8,3.2-32.1,9.1l25,43.3c1.4-0.8,4.1-1.9,11.6-2.6c7.8-0.7,18.2-0.7,34.2-0.7L283.3,41.7  L283.3,41.7z M225,150c0-16,0-26.4,0.7-34.2c0.7-7.5,1.8-10.2,2.6-11.6l-43.3-25c-5.9,10.2-8.1,21.1-9.1,32.1  c-1,10.6-0.9,23.6-0.9,38.8h50V150z M212.5,51.7c-11.4,6.6-20.9,16.1-27.5,27.5l43.3,25c2.2-3.8,5.4-7,9.2-9.2L212.5,51.7z   M358.3,666.7V533.3h-50v133.3h50V666.7z M441.7,533.3v133.3h50V533.3H441.7z M441.7,666.7c0,16.4-0.1,26.2-1,33.2  c-0.4,3.2-0.9,4.8-1.2,5.6c-0.1,0.2-0.1,0.3-0.2,0.3c0,0.1,0,0.1-0.1,0.1l0,0l0,0l35.4,35.4c10.3-10.3,14.1-22.8,15.6-34.7  c1.5-11.1,1.4-24.9,1.4-39.9L441.7,666.7L441.7,666.7z M400,758.3c15,0,28.8,0.1,39.9-1.4c11.9-1.6,24.4-5.3,34.7-15.6l-35.4-35.4  l0,0l0,0c0,0,0,0-0.1,0.1c-0.1,0-0.2,0.1-0.3,0.2c-0.7,0.3-2.3,0.8-5.6,1.2c-7,0.9-16.8,1-33.2,1V758.3z M400,491.7  c16.4,0,26.2,0.1,33.2,1c3.2,0.4,4.8,0.9,5.6,1.2c0.2,0.1,0.3,0.1,0.3,0.2c0.1,0,0.1,0,0.1,0.1l0,0l0,0l35.4-35.4  c-10.3-10.3-22.8-14-34.7-15.6c-11.1-1.5-24.9-1.4-39.9-1.4V491.7z M491.7,533.3c0-15,0.1-28.8-1.4-39.9  c-1.6-11.9-5.3-24.4-15.6-34.7l-35.4,35.4l0,0l0,0c0,0,0,0,0.1,0.1c0,0.1,0.1,0.2,0.2,0.3c0.3,0.7,0.8,2.3,1.2,5.6  c0.9,7,1,16.8,1,33.2H491.7z M358.3,533.3c0-16.4,0.1-26.2,1-33.2c0.4-3.2,0.9-4.8,1.2-5.6c0.1-0.2,0.1-0.3,0.2-0.3  c0-0.1,0-0.1,0.1-0.1l0,0l0,0l-35.4-35.4c-10.3,10.3-14,22.8-15.6,34.7c-1.5,11.1-1.4,24.9-1.4,39.9H358.3z M400,441.7  c-15,0-28.8-0.1-39.9,1.4c-11.9,1.6-24.4,5.3-34.7,15.6l35.4,35.4l0,0l0,0c0,0,0,0,0.1-0.1c0.1,0,0.2-0.1,0.3-0.2  c0.7-0.3,2.3-0.8,5.6-1.2c7-0.9,16.8-1,33.2-1V441.7z M308.3,666.7c0,15-0.1,28.8,1.4,39.9c1.6,11.8,5.3,24.4,15.6,34.7l35.4-35.4  l0,0l0,0c0,0,0,0-0.1-0.1c0-0.1-0.1-0.2-0.2-0.3c-0.3-0.7-0.8-2.3-1.2-5.6c-0.9-7-1-16.8-1-33.2L308.3,666.7L308.3,666.7z   M400,708.3c-16.4,0-26.2-0.1-33.2-1c-3.2-0.4-4.8-0.9-5.6-1.2c-0.2-0.1-0.3-0.1-0.3-0.2c-0.1,0-0.1-0.1-0.1-0.1l0,0l0,0l-35.4,35.4  c10.3,10.3,22.8,14,34.7,15.6c11.1,1.5,24.9,1.4,39.9,1.4V708.3z M517.3,391l135.9-20.4l-7.4-49.4l-135.9,20.4L517.3,391z   M634.8,125H600v50h34.8V125z M758.3,248.5c0-14.5,0-26.6-0.6-36.5c-0.7-10.1-2.1-19.6-5.7-29l-46.5,18.3c1,2.5,1.9,6.2,2.4,13.9  c0.5,7.9,0.5,18.1,0.5,33.2h49.9V248.5z M634.8,175c15.2,0,25.3,0,33.2,0.5c7.7,0.5,11.4,1.4,13.9,2.4l18.3-46.5  c-9.3-3.7-18.9-5.1-29-5.7c-9.9-0.6-22-0.6-36.5-0.6L634.8,175L634.8,175z M752,183.1c-9.3-23.7-28-42.4-51.7-51.7L682,177.9  c10.8,4.2,19.3,12.7,23.5,23.5L752,183.1z M653.1,370.6c23.6-3.5,41.7-5.9,56.5-13.8l-23.5-44.2c-5.4,2.9-12.9,4.3-40.5,8.5  L653.1,370.6z M708.3,248.5c0,27.9-0.4,35.6-2.4,41.3l47.1,16.7c5.6-15.8,5.2-34.1,5.2-57.9h-49.9V248.5z M709.7,356.9  c20.3-10.8,35.8-28.8,43.4-50.4L706,289.8c-3.5,9.8-10.5,18-19.7,22.9L709.7,356.9z M509.8,341.6c-26.4,4-48.6,7.2-66,12.1  c-18.1,5.1-34.1,12.7-46.6,27.2l37.9,32.6c3.6-4.2,9.2-8,22.3-11.7c13.7-3.9,32.2-6.7,59.9-10.8L509.8,341.6z M425.2,467.1  c0.6-35.5,3.9-46.5,9.9-53.5L397.2,381c-19.4,22.5-21.5,51.7-22,85.3L425.2,467.1z M400,491.7h0.2v-50H400V491.7z M200,125h-16.7v50  H200V125z" fill="#F28C28" />
</svg>