<?xml version='1.0' encoding='utf-8'?>
<svg xmlns="http://www.w3.org/2000/svg" version="1.1" id="Capa_1" x="0px" y="0px" viewBox="0 0 800 800" style="enable-background:new 0 0 800 800;" xml:space="preserve">
<g id="layer1">
	<path d="M643,5.9l-8.8,0.2l-8.5,2.2l-7.9,3.9L512.8,81l-7.2,5.9l-5.5,7.5L485.3,120l-2.9,6.3l-1.9,6.7l-0.5,7v67.1   l-7.6,9.9l-5.8,11.2l-4.1,11.9h-24.3l-3.2-13.8l-4.8-13.4l-6.2-12.8l-5.2-6.8l-6.2-5.7l-7.6-4.1l-8.1-2.6l-8.4-0.7l-11.5,0.3   l-9.2,1.4l-8.4,3.5l-7.6,5.3l-6,7l-7.7,9.5l-9.1,8.1l-10.2,6.7l-11.1,5.2l-11.7,3.4l-35.4,8.4l-34.8,11L192,263.4l-32.8,15.8   l-31.7,18l-30.2,20.1l-28.9,22.3l-27.2,24.1l-25.4,26.1l-7.1,9.5l-5.1,10.5l-2.8,11.5L0,433l1.7,11.6l4,11.1l6,10.1l7.9,8.8l9.4,7   l10.6,5.1l11.3,3l11.9,0.5l11.6-1.6l11.1-3.9l10.1-6.1l8.8-7.9l21.2-21.6l22.8-20.1l24.4-18.1l25.5-16.2l26.8-14.4L253,368   l28.7-10.1l29.3-7.8l29.8-5.7L371,341l30.2-1l9-0.9l8.4-3l7.7-4.8l6.3-6.2l4.7-7.7l3-8.4l1-9h29.3l8,11.5l9.9,9.9l11.3,8v29.3   l-8.9,1l-8.5,2.9l-7.5,4.8l-6.4,6.4l-4.8,7.7l-2.9,8.4l-0.9,9l-1,30.2l-3.4,30.2l-5.7,29.8l-7.9,29.3L432,547l-12.3,27.9   l-14.3,26.6l-16.2,25.7l-18.3,24.4L351,674.4l-21.6,21.2l-7.9,8.8l-6.1,10.1l-3.9,11.2l-1.6,11.6l0.5,11.7l3,11.5l4.9,10.6l7.1,9.4   l8.7,7.9l10.2,6l11.1,4L367,800l11.7-0.6l11.4-2.9l10.6-5l9.5-7.1l25.9-25.4l24.3-27.3l22.2-28.8l20.2-30.2l18-31.7l15.8-32.8   l13.4-33.9l11-34.8l8.4-35.4l3.4-11.7l5.2-11.1l6.7-10.2l8.1-9.1l9.5-7.7l7-6l5.3-7.6l3.5-8.6l1.4-9.1l0.3-11.5l-0.7-8.4l-2.5-8.3   l-4.2-7.4l-5.7-6.4l-7-5l-12.7-6.2l-13.4-4.8l-13.8-3.1v-24.3l11.8-4.1l11.2-5.8l9.9-7.6H660l7-0.5l6.8-1.9l6.2-2.9l25.5-14.8   l7.5-5.6l5.9-7l68.8-104.9l3.9-7.9l2.2-8.5l0.2-8.8l-1.7-8.7l-3.4-8h-0.1L777.1,120L719,153.6l-5,11.7l-7,10.9l-8.5,9.5l-9.9,8.1   l-11,6.5l-12.1,4.5l-12.5,2.6l-12.9,0.6l-12.7-1.6l-19.5,11.2l-7.2-9.8l-8.6-8.6l-9.8-7.2l11.2-19.5l-1.5-12.7l0.5-12.8l2.6-12.5   l4.5-12.1l6.3-11.1l8.1-9.8l9.7-8.6l10.8-6.9l11.8-5L680,22.9l-20.3-11.7l-8.1-3.6L643,5.9z M572.3,89.8l-7.9,13.6l-6,14.4   l-4.1,15.2l-2.1,15.5v15.6l-4.5,7.9l-3.6,8l-1.6,8.6l0.2,8.7l2.1,8.6l3.9,7.8l5.6,6.8l6.8,5.4l7.6,6.2l5.9,7.7l3.8,9l1.5,9.6   l-0.8,9.6l-3.2,9.3l-5.2,8.1l-7.1,6.7l-8.5,4.8l-9.4,2.6l-9.8,0.2l-9.5-2.2l-8.7-4.3l-7.3-6.4l-5.6-7.9l-3.6-9.1l-1.3-9.6l1.2-9.7   l3.4-9.1l5.5-8l5.5-7.9l3.4-9.1l1.2-9.5V140l14.8-25.5L572.3,89.8z M389.3,220.1l5.9,12.7l3.6,13.4L400,260v20l0.4,10.1l1,10   l-33.4,1l-33.2,3.8l-32.8,6.2l-32.3,8.6l-31.5,11.1l-30.6,13.5l-29.4,15.6L150,377.8l-26.8,20.1l-25.1,22l-23.4,23.8l-5.5,4.1   l-6.6,2.2l-7-0.3l-6.5-2.7l-5.1-4.7l-3.3-6.2l-0.8-6.8l1.3-6.9l3.8-5.8l23.6-24.1l25.1-22.4l26.6-20.5l28-18.5l29.3-16.6l30.3-14.5   l31.2-12.3l32-10.2l32.7-7.9l14.8-3.9l14.1-5.9l13.2-7.7l12.2-9.1l10.9-10.7l9.5-12L389.3,220.1z M710.2,227.7l-24.6,37.6L660,280   h-42.6l2.2-12l0.2-12.2l8-3.5l7.9-4.5l15.6-0.1l15.5-2.1l15.1-4.1l14.5-6L710.2,227.7z M499.9,398.6l10,1L520,400h20l13.8,1.2   l13.4,3.6l12.7,5.9l-0.3,10.6l-12,9.5L557,441.6l-9.3,12.2l-7.6,13.4l-5.8,14.1l-4.1,14.8l-7.7,32.7l-10.2,32L499.9,592l-14.5,30.3   l-16.6,29.3l-18.7,28l-20.4,26.6l-22.4,25.1l-24.1,23.4l-5.9,3.8l-6.7,1.5l-6.8-0.9l-6.2-3.2l-4.8-5.2l-2.6-6.3l-0.3-7l2-6.6   l4.3-5.5l23.8-23.4l22-25.2l20.1-26.6l17.9-28.2l15.6-29.5l13.5-30.5l11.1-31.5l8.6-32.3l6.2-32.9l3.6-33.2L499.9,398.6z" fill="#F28C28" />
</g>
</svg>