<?xml version='1.0' encoding='utf-8'?>
<svg xmlns="http://www.w3.org/2000/svg" version="1.1" id="Capa_1" x="0px" y="0px" viewBox="0 0 800 800" style="enable-background:new 0 0 800 800;" xml:space="preserve">
<path d="M600,266.7l31.6,10.5c33,11,49.5,16.5,58.9,29.6s9.4,30.5,9.4,65.3V561c0,43,0,64.5-11.3,78.4  c-3.8,4.7-8.5,8.6-13.8,11.7c-15.5,8.9-36.7,5.4-79.2-1.7c-41.9-7-62.8-10.5-83.6-8.7c-7.3,0.6-14.5,1.7-21.7,3.3  c-20.3,4.4-39.5,14-77.8,33.2c-50,25-75,37.5-101.6,41.3c-8,1.2-16.1,1.7-24.2,1.7c-26.9-0.1-53.2-8.8-105.7-26.3l-12.8-4.3  c-33-11-49.5-16.5-58.9-29.6s-9.4-30.5-9.4-65.3V430.3c0-55.3,0-82.9,16.3-97.8c2.8-2.6,6-4.9,9.4-6.7c19.3-10.7,45.5-2,97.9,15.5" fill="none" stroke="#F28C28" stroke-width="50" stroke-miterlimit="133.3333" />
<path d="M200,256.7c0-104.9,89.5-190,200-190s200,85.1,200,190c0,104.1-63.8,225.6-163.4,269.1  c-23.2,10.1-49.9,10.1-73.1,0C263.8,482.3,200,360.8,200,256.7z" fill="none" stroke="#F28C28" stroke-width="50" stroke-miterlimit="133.3333" />
<circle cx="400" cy="266.7" r="66.7" fill="none" stroke="#F28C28" stroke-width="50" stroke-miterlimit="133.3333" />
</svg>