<?xml version='1.0' encoding='utf-8'?>
<svg xmlns="http://www.w3.org/2000/svg" version="1.1" id="Capa_1" x="0px" y="0px" viewBox="0 0 800 800" style="enable-background:new 0 0 800 800;" xml:space="preserve">
<g id="layer1">
	<path d="M720,0c0,0-67.1-1.2-114.1,45.9l-140,140c-22.4,22.4-34,45.3-39.8,62.8c-2.7,8.1-2,9-2.8,14.5   c-5.5,0.8-6.4,0.1-14.5,2.8c-17.5,5.8-40.5,17.5-62.8,39.8l-40,40c-7.8,7.8-7.8,20.5,0,28.3l21.8,21.8L120.3,603.4l-56.8,26.5   c-3.6,1.7-6.6,4.4-8.6,7.7l-48,78.8c-2.2,2.4-3.8,5.4-4.5,8.6v0.1c-0.1,0.4-0.2,0.9-0.3,1.3c-1.9,8.7,2.1,17.6,9.8,21.9L51.7,788   c4.2,7.7,12.9,11.9,21.5,10.2c3.9-0.6,7.5-2.2,10.4-4.8l78.9-48.1c3.4-2,6.1-5,7.7-8.6l26.5-56.8L404,472.3l21.9,21.9   c7.8,7.8,20.5,7.8,28.3,0l40-40c22.4-22.4,34-45.3,39.8-62.8c2.7-8.1,2-9,2.8-14.5c5.5-0.8,6.4-0.1,14.5-2.8   c17.5-5.8,40.5-17.5,62.8-39.8l140-140C801.2,147.1,800,80,800,80c0-5.3-2.1-10.4-5.9-14.1l-30-30l-30-30C730.4,2.1,725.3,0,720,0z    M712.8,41.1l23,23l23,23c-0.6,10.1-4,49.6-33,78.7l-140,140c-17.6,17.6-34.7,26-47.2,30.2s-18.7,4-18.7,4c-11,0-20,9-20,20   c0,0,0.2,6.2-4,18.7s-12.5,29.5-30.2,47.2L440,451.7l-45.9-45.9L348.3,360l25.9-25.9c17.6-17.6,34.7-26,47.2-30.2s18.7-4,18.7-4   c11,0,20-9,20-20c0,0-0.2-6.2,4-18.7s12.5-29.5,30.2-47.2l140-140C663.2,45.1,702.7,41.7,712.8,41.1z M355.9,424.2l9.9,9.9l9.8,9.8   L165.9,653.8c-1.7,1.7-3,3.6-4,5.7L136.4,714L73,752.7L47.3,727L86,663.6l54.5-25.5c2.1-1,4-2.3,5.6-4L355.9,424.2z" fill="#F28C28" />
</g>
</svg>