<?xml version='1.0' encoding='utf-8'?>
<svg xmlns="http://www.w3.org/2000/svg" version="1.1" id="Capa_1" x="0px" y="0px" viewBox="0 0 800 800" style="enable-background:new 0 0 800 800;" xml:space="preserve">
<path d="M100,347.2c0-106.6,0-159.9,12.6-177.8s62.7-35.1,162.9-69.4l19.1-6.5C346.8,75.6,373,66.7,400,66.7  s53.2,8.9,105.4,26.8l19.1,6.5c100.2,34.3,150.3,51.5,162.9,69.4C700,187.3,700,240.6,700,347.2c0,16.1,0,33.6,0,52.5  c0,187.9-141.3,279.1-230,317.9c-24,10.5-36.1,15.8-70,15.8s-46-5.3-70-15.8c-88.7-38.7-230-129.9-230-317.9  C100,380.8,100,363.3,100,347.2z" fill="none" stroke="#F28C28" stroke-width="50" stroke-miterlimit="133.3333" />
<path d="M362,278.8c16.9-30.3,25.3-45.4,38-45.4c12.6,0,21.1,15.1,38,45.4l4.4,7.8c4.8,8.6,7.2,12.9,10.9,15.8  c3.7,2.8,8.4,3.9,17.7,6l8.5,1.9c32.8,7.4,49.2,11.1,53.1,23.7c3.9,12.5-7.3,25.6-29.6,51.8l-5.8,6.8c-6.4,7.4-9.5,11.1-11,15.7  c-1.4,4.6-0.9,9.6,0,19.5l0.9,9c3.4,34.9,5.1,52.3-5.1,60.1c-10.2,7.8-25.6,0.7-56.3-13.5l-7.9-3.7c-8.7-4-13.1-6-17.7-6  s-9,2-17.7,6l-7.9,3.7c-30.7,14.1-46.1,21.2-56.3,13.5c-10.2-7.8-8.5-25.2-5.1-60.1l0.9-9c1-9.9,1.4-14.9,0-19.5s-4.6-8.3-11-15.7  l-5.8-6.8c-22.4-26.1-33.5-39.2-29.6-51.8c3.9-12.5,20.3-16.3,53.1-23.7l8.5-1.9c9.3-2.1,14-3.2,17.7-6s6.1-7.1,10.9-15.8L362,278.8  z" fill="none" stroke="#F28C28" stroke-width="50" stroke-miterlimit="133.3333" />
</svg>